<svg xmlns="http://www.w3.org/2000/svg" viewBox="0 0 200 200"><rect width="200" height="200" fill="#FAF9F7"/><g transform="translate(100,100)"><circle cx="0" cy="0" r="35" fill="url(#sunGrad)"/><rect width="12" height="30" x="-6" y="-75" fill="#1A1A1A" rx="6"/><rect width="12" height="30" x="-6" y="45" fill="#1A1A1A" rx="6"/><rect width="30" height="12" x="-75" y="-6" fill="#1A1A1A" rx="6"/><rect width="30" height="12" x="45" y="-6" fill="#1A1A1A" rx="6"/><rect width="12" height="28" x="42" y="-54" fill="#1A1A1A" rx="6" transform="rotate(45 48 -40)"/><rect width="12" height="28" x="-54" y="42" fill="#1A1A1A" rx="6" transform="rotate(45 -48 56)"/><rect width="12" height="28" x="42" y="26" fill="#1A1A1A" rx="6" transform="rotate(-45 48 40)"/><rect width="12" height="28" x="-54" y="-54" fill="#1A1A1A" rx="6" transform="rotate(-45 -48 -40)"/></g><defs><linearGradient id="sunGrad" x1="0%" x2="100%" y1="0%" y2="100%"><stop offset="0%" style="stop-color:#f27b6a"/><stop offset="100%" style="stop-color:#7c5cfc"/></linearGradient></defs><text x="100" y="185" fill="#8A8A8A" font-family="Inter,sans-serif" font-size="10" letter-spacing=".1em" text-anchor="middle">CONCEPT 7: ZIMBABWE SUN</text></svg>