<svg xmlns="http://www.w3.org/2000/svg" viewBox="0 0 200 200"><rect width="200" height="200" fill="#FAF9F7"/><g><path fill="#1A1A1A" d="M 0,-75 C 40,-75 70,-45 70,0 C 70,50 0,80 0,80 C 0,80 -70,50 -70,0 C -70,-45 -40,-75 0,-75Z" transform="translate(100,100)"/><path fill="url(#shieldGrad)" d="M 0,-40 C 22,-40 38,-22 38,0 C 38,28 0,48 0,48 C 0,48 -38,28 -38,0 C -38,-22 -22,-40 0,-40Z" transform="translate(100,100)"/><path fill="none" stroke="#FFF" stroke-linecap="round" stroke-width="3" d="M 0,-75 C 25,-75 45,-60 55,-40" opacity=".1" transform="translate(100,100)"/></g><defs><linearGradient id="shieldGrad" x1="0%" x2="100%" y1="0%" y2="100%"><stop offset="0%" style="stop-color:#f27b6a"/><stop offset="100%" style="stop-color:#7c5cfc"/></linearGradient></defs><text x="100" y="185" fill="#8A8A8A" font-family="Inter,sans-serif" font-size="10" letter-spacing=".1em" text-anchor="middle">CONCEPT 5: SHIELD STONE</text></svg>