<svg xmlns="http://www.w3.org/2000/svg" width="1200" height="800" viewBox="0 0 1200 800"><defs><linearGradient id="appCore" x1="0%" x2="100%" y1="0%" y2="100%"><stop offset="0%" style="stop-color:#f27b6a"/><stop offset="50%" style="stop-color:#d96ba8"/><stop offset="100%" style="stop-color:#7c5cfc"/></linearGradient><filter id="shadow" width="140%" height="140%" x="-20%" y="-20%"><feDropShadow dx="0" dy="8" flood-opacity=".15" stdDeviation="16"/></filter></defs><rect width="1200" height="800" fill="#FAF9F7"/><g transform="translate(80, 80)"><text x="0" y="-20" fill="#8A8A8A" font-family="Inter, sans-serif" font-size="12" font-weight="600" letter-spacing=".15em">APP ICON (iOS)</text><rect width="240" height="480" x="0" y="0" fill="#1A1A1A" filter="url(#shadow)" rx="32"/><rect width="216" height="456" x="12" y="12" fill="#0A0A0A" rx="24"/><rect width="200" height="440" x="20" y="20" fill="#FAF9F7" rx="20"/><rect width="100" height="100" x="70" y="100" fill="#1A1A1A" rx="22"/><path fill="#1A1A1A" d="M 120,118 A 36,36 0 1,1 94.44,165.72 L 120,150 Z"/><path fill="#252525" d="M 120,150 L 94.44,165.72 A 36,36 0 0,0 114.8,118.7 Z"/><circle cx="134.86" cy="135.14" r="11" fill="url(#appCore)"/><text x="120" y="230" fill="#1A1A1A" font-family="Inter, sans-serif" font-size="12" font-weight="500" text-anchor="middle">Corelith</text><rect width="200" height="24" x="20" y="20" fill="#FAF9F7" rx="20"/><text x="200" y="36" fill="#1A1A1A" font-family="Inter, sans-serif" font-size="10" text-anchor="end">9:41</text></g><g transform="translate(400, 80)"><text x="0" y="-20" fill="#8A8A8A" font-family="Inter, sans-serif" font-size="12" font-weight="600" letter-spacing=".15em">WEBSITE HEADER</text><rect width="700" height="480" x="0" y="0" fill="#FFF" filter="url(#shadow)" rx="12"/><rect width="700" height="40" x="0" y="0" fill="#F0EFED" rx="12"/><rect width="700" height="12" x="0" y="28" fill="#F0EFED"/><circle cx="24" cy="20" r="6" fill="#E8E8E8"/><circle cx="44" cy="20" r="6" fill="#E8E8E8"/><circle cx="64" cy="20" r="6" fill="#E8E8E8"/><rect width="700" height="64" x="0" y="40" fill="#FFF"/><g transform="translate(32, 56)"><path fill="#1A1A1A" d="M 16,2 A 14,14 0 1,1 6.1,23.9 L 16,16 Z"/><circle cx="20.4" cy="11.6" r="4.5" fill="url(#appCore)"/><text x="38" y="22" fill="#1A1A1A" font-family="Inter, sans-serif" font-size="20" font-weight="700">Corelith</text></g><text x="480" y="80" fill="#8A8A8A" font-family="Inter, sans-serif" font-size="12" font-weight="500" letter-spacing=".08em">PRODUCT</text><text x="560" y="80" fill="#8A8A8A" font-family="Inter, sans-serif" font-size="12" font-weight="500" letter-spacing=".08em">PRICING</text><text x="640" y="80" fill="#8A8A8A" font-family="Inter, sans-serif" font-size="12" font-weight="500" letter-spacing=".08em">ABOUT</text><rect width="700" height="376" x="0" y="104" fill="#FAF9F7"/><text x="350" y="220" fill="#1A1A1A" font-family="Inter, sans-serif" font-size="36" font-weight="800" text-anchor="middle">Built in Zimbabwe</text><text x="350" y="260" fill="#1A1A1A" font-family="Inter, sans-serif" font-size="36" font-weight="800" text-anchor="middle">for Zimbabwe businesses</text><rect width="150" height="44" x="275" y="300" fill="#1A1A1A" rx="8"/><text x="350" y="327" fill="#FAF9F7" font-family="Inter, sans-serif" font-size="14" font-weight="600" text-anchor="middle">Start Free Trial</text></g><g transform="translate(80, 640)"><text x="0" y="-20" fill="#8A8A8A" font-family="Inter, sans-serif" font-size="12" font-weight="600" letter-spacing=".15em">BUSINESS CARD</text><rect width="320" height="180" x="0" y="0" fill="#1A1A1A" filter="url(#shadow)" rx="12"/><g transform="translate(24, 24)"><path fill="#FAF9F7" d="M 20,3 A 17,17 0 1,1 8.2,27.7 L 20,20 Z"/><path fill="#E8E8E8" d="M 20,20 L 8.2,27.7 A 17,17 0 0,0 17.8,3.3 Z" opacity=".2"/><circle cx="26.1" cy="13.9" r="5.5" fill="url(#appCore)"/></g><text x="24" y="100" fill="#FAF9F7" font-family="Inter, sans-serif" font-size="24" font-weight="800">Tate</text><text x="24" y="124" fill="#8A8A8A" font-family="Inter, sans-serif" font-size="12" font-weight="500">Founder, Corelith</text><text x="24" y="148" fill="#8A8A8A" font-family="Inter, sans-serif" font-size="11" font-weight="400">hello@pagka.dev</text><text x="24" y="164" fill="#8A8A8A" font-family="Inter, sans-serif" font-size="11" font-weight="400">+263 78 493 9111</text><text x="296" y="164" fill="#FAF9F7" font-family="Inter, sans-serif" font-size="14" font-weight="700" text-anchor="end">Corelith</text></g><g transform="translate(480, 640)"><text x="0" y="-20" fill="#8A8A8A" font-family="Inter, sans-serif" font-size="12" font-weight="600" letter-spacing=".15em">SOCIAL AVATAR</text><rect width="200" height="200" x="0" y="0" fill="#FFF" filter="url(#shadow)" rx="12"/><rect width="200" height="60" x="0" y="0" fill="#1A1A1A" rx="12"/><rect width="200" height="12" x="0" y="48" fill="#1A1A1A"/><circle cx="100" cy="70" r="36" fill="#FAF9F7" stroke="#FFF" stroke-width="4"/><g transform="translate(82, 52)"><path fill="#1A1A1A" d="M 18,3 A 15,15 0 1,1 7.7,24.8 L 18,18 Z"/><circle cx="23.5" cy="12.5" r="5" fill="url(#appCore)"/></g><text x="100" y="130" fill="#1A1A1A" font-family="Inter, sans-serif" font-size="16" font-weight="700" text-anchor="middle">Corelith</text><text x="100" y="148" fill="#8A8A8A" font-family="Inter, sans-serif" font-size="10" text-anchor="middle">@corelithapp</text><text x="100" y="172" fill="#8A8A8A" font-family="Inter, sans-serif" font-size="10" text-anchor="middle">ERP built in Zimbabwe 🇿🇼</text></g><g transform="translate(760, 640)"><text x="0" y="-20" fill="#8A8A8A" font-family="Inter, sans-serif" font-size="12" font-weight="600" letter-spacing=".15em">LOADING STATE</text><rect width="200" height="200" x="0" y="0" fill="#1A1A1A" filter="url(#shadow)" rx="12"/><g transform="translate(100, 100)"><circle cx="0" cy="0" r="50" fill="none" stroke="#2D2D2D" stroke-width="4"/><path fill="none" stroke="url(#appCore)" stroke-linecap="round" stroke-width="4" d="M 0,-50 A 50,50 0 0,1 35.35,-35.35"/><circle cx="0" cy="0" r="16" fill="url(#appCore)" opacity=".8"/><circle cx="0" cy="0" r="24" fill="url(#appCore)" opacity=".2"/></g><text x="100" y="170" fill="#8A8A8A" font-family="Inter, sans-serif" font-size="10" font-weight="500" text-anchor="middle">Loading...</text></g></svg>