<svg xmlns="http://www.w3.org/2000/svg" width="512" height="512" viewBox="0 0 512 512"><defs><linearGradient id="coreGrad" x1="0%" x2="100%" y1="0%" y2="100%"><stop offset="0%" style="stop-color:#f27b6a"/><stop offset="50%" style="stop-color:#d96ba8"/><stop offset="100%" style="stop-color:#7c5cfc"/></linearGradient><radialGradient id="glowGrad" cx="55%" cy="40%" r="50%"><stop offset="0%" style="stop-color:#f27b6a;stop-opacity:.4"/><stop offset="100%" style="stop-color:#f27b6a;stop-opacity:0"/></radialGradient></defs><rect width="512" height="512" fill="#FAF9F7"/><g opacity=".08"><line x1="64" x2="64" y1="0" y2="512" stroke="#1A1A1A" stroke-width="1"/><line x1="128" x2="128" y1="0" y2="512" stroke="#1A1A1A" stroke-width="1"/><line x1="192" x2="192" y1="0" y2="512" stroke="#1A1A1A" stroke-width="1"/><line x1="256" x2="256" y1="0" y2="512" stroke="#1A1A1A" stroke-width="2"/><line x1="320" x2="320" y1="0" y2="512" stroke="#1A1A1A" stroke-width="1"/><line x1="384" x2="384" y1="0" y2="512" stroke="#1A1A1A" stroke-width="1"/><line x1="448" x2="448" y1="0" y2="512" stroke="#1A1A1A" stroke-width="1"/><line x1="0" x2="512" y1="64" y2="64" stroke="#1A1A1A" stroke-width="1"/><line x1="0" x2="512" y1="128" y2="128" stroke="#1A1A1A" stroke-width="1"/><line x1="0" x2="512" y1="192" y2="192" stroke="#1A1A1A" stroke-width="1"/><line x1="0" x2="512" y1="256" y2="256" stroke="#1A1A1A" stroke-width="2"/><line x1="0" x2="512" y1="320" y2="320" stroke="#1A1A1A" stroke-width="1"/><line x1="0" x2="512" y1="384" y2="384" stroke="#1A1A1A" stroke-width="1"/><line x1="0" x2="512" y1="448" y2="448" stroke="#1A1A1A" stroke-width="1"/><circle cx="256" cy="256" r="112" fill="none" stroke="#7C5CFC" stroke-dasharray="4 4" stroke-width="1"/><circle cx="256" cy="256" r="180" fill="none" stroke="#F27B6A" stroke-dasharray="4 4" stroke-width="1"/><circle cx="256" cy="256" r="224" fill="none" stroke="#1A1A1A" stroke-dasharray="2 6" stroke-width="1"/></g><g transform="translate(256, 256)"><path fill="#1A1A1A" d="M 0,-180 A 180,180 0 1,1 -127.28,127.28 L 0,0 Z"/><path fill="#252525" d="M 0,0 L -127.28,127.28 A 180,180 0 0,0 -27.28,-177.91 Z"/><circle cx="56.57" cy="-56.57" r="56" fill="url(#coreGrad)"/><circle cx="56.57" cy="-56.57" r="72" fill="url(#glowGrad)"/><ellipse cx="42" cy="-72" fill="#FFF" opacity=".25" rx="16" ry="10" transform="rotate(-45 42 -72)"/><path fill="none" stroke="#FFF" stroke-linecap="round" stroke-width="4" d="M 0,-180 A 180,180 0 0,1 127.28,-127.28" opacity=".08"/></g><text x="256" y="480" fill="#8A8A8A" font-family="Inter, sans-serif" font-size="14" font-weight="600" letter-spacing=".2em" text-anchor="middle">CORELITH — THE CORE REVEAL</text><text x="256" y="498" fill="#8A8A8A" font-family="Inter, sans-serif" font-size="10" letter-spacing=".1em" text-anchor="middle">Construction Grid • 8×8 • Golden Ratio</text></svg>