<svg xmlns="http://www.w3.org/2000/svg" viewBox="0 0 500 400" fill="none">
  <!-- Central building -->
  <rect x="200" y="160" width="100" height="100" rx="12" fill="white" stroke="#1A1A1A" stroke-width="1.5"/>
  <rect x="220" y="120" width="60" height="40" rx="8" fill="white" stroke="#1A1A1A" stroke-width="1.5"/>
  <rect x="235" y="130" width="30" height="20" rx="4" fill="#F5F3EF"/>
  
  <!-- Building windows -->
  <rect x="215" y="180" width="18" height="18" rx="4" fill="#F5F3EF" stroke="#E5E5E5" stroke-width="1"/>
  <rect x="241" y="180" width="18" height="18" rx="4" fill="#F5F3EF" stroke="#E5E5E5" stroke-width="1"/>
  <rect x="267" y="180" width="18" height="18" rx="4" fill="#F5F3EF" stroke="#E5E5E5" stroke-width="1"/>
  <rect x="215" y="206" width="18" height="18" rx="4" fill="#F5F3EF" stroke="#E5E5E5" stroke-width="1"/>
  <rect x="241" y="206" width="18" height="18" rx="4" fill="#F27B6A" opacity="0.2" stroke="#F27B6A" stroke-width="1"/>
  <rect x="267" y="206" width="18" height="18" rx="4" fill="#F5F3EF" stroke="#E5E5E5" stroke-width="1"/>
  <rect x="215" y="232" width="18" height="18" rx="4" fill="#F5F3EF" stroke="#E5E5E5" stroke-width="1"/>
  <rect x="241" y="232" width="18" height="18" rx="4" fill="#F5F3EF" stroke="#E5E5E5" stroke-width="1"/>
  <rect x="267" y="232" width="18" height="18" rx="4" fill="#F5F3EF" stroke="#E5E5E5" stroke-width="1"/>

  <!-- Students above -->
  <circle cx="180" cy="110" r="14" fill="white" stroke="#1A1A1A" stroke-width="1.5"/>
  <circle cx="180" cy="102" r="5" fill="#1A1A1A" opacity="0.3"/>
  <rect x="174" y="110" width="12" height="8" rx="2" fill="#F27B6A" opacity="0.3"/>
  
  <circle cx="250" cy="90" r="16" fill="white" stroke="#1A1A1A" stroke-width="1.5"/>
  <circle cx="250" cy="81" r="6" fill="#1A1A1A" opacity="0.3"/>
  <rect x="243" y="90" width="14" height="10" rx="2" fill="#F27B6A" opacity="0.3"/>
  
  <circle cx="320" cy="110" r="14" fill="white" stroke="#1A1A1A" stroke-width="1.5"/>
  <circle cx="320" cy="102" r="5" fill="#1A1A1A" opacity="0.3"/>
  <rect x="314" y="110" width="12" height="8" rx="2" fill="#7C5CFC" opacity="0.3"/>

  <!-- Grade levels (left) -->
  <rect x="80" y="160" width="70" height="110" rx="8" fill="white" stroke="#E5E5E5" stroke-width="1"/>
  <rect x="95" y="172" width="40" height="4" rx="2" fill="#1A1A1A"/>
  <rect x="95" y="190" width="30" height="8" rx="4" fill="#F27B6A" opacity="0.3"/>
  <rect x="95" y="206" width="30" height="8" rx="4" fill="#7C5CFC" opacity="0.2"/>
  <rect x="95" y="222" width="30" height="8" rx="4" fill="#F27B6A" opacity="0.4"/>
  <rect x="95" y="238" width="30" height="8" rx="4" fill="#7C5CFC" opacity="0.3"/>
  <rect x="95" y="254" width="30" height="8" rx="4" fill="#F27B6A" opacity="0.2"/>

  <!-- Attendance records (right) -->
  <rect x="350" y="160" width="80" height="110" rx="8" fill="white" stroke="#E5E5E5" stroke-width="1"/>
  <rect x="365" y="172" width="50" height="4" rx="2" fill="#1A1A1A"/>
  <rect x="365" y="190" width="40" height="3" rx="1.5" fill="#737373"/>
  <circle cx="372" cy="210" r="5" fill="#F27B6A"/>
  <path d="M 369 210 L 372 213 L 375 209" stroke="white" stroke-width="1.5" stroke-linecap="round" stroke-linejoin="round"/>
  <rect x="385" y="208" width="30" height="3" rx="1.5" fill="#737373"/>
  <rect x="365" y="228" width="40" height="3" rx="1.5" fill="#737373"/>
  <circle cx="372" cy="248" r="5" fill="#F27B6A"/>
  <path d="M 369 248 L 372 251 L 375 247" stroke="white" stroke-width="1.5" stroke-linecap="round" stroke-linejoin="round"/>
  <rect x="385" y="246" width="30" height="3" rx="1.5" fill="#737373"/>

  <!-- Connecting lines -->
  <path d="M 196 118 Q 190 140 180 160" stroke="#E5E5E5" stroke-width="1" stroke-dasharray="3 3" fill="none"/>
  <path d="M 250 106 L 250 120" stroke="#E5E5E5" stroke-width="1" stroke-dasharray="3 3" fill="none"/>
  <path d="M 306 118 Q 320 140 350 160" stroke="#E5E5E5" stroke-width="1" stroke-dasharray="3 3" fill="none"/>

  <!-- Active session indicator -->
  <circle cx="250" cy="215" r="8" fill="#F27B6A" opacity="0.2"/>
  <circle cx="250" cy="215" r="4" fill="#F27B6A"/>

  <!-- Labels -->
  <rect x="210" y="310" width="80" height="20" rx="6" fill="white" stroke="#E5E5E5" stroke-width="1"/>
  <rect x="225" y="318" width="50" height="4" rx="2" fill="#737373"/>

  <!-- Floating elements -->
  <circle cx="100" cy="100" r="8" fill="#F27B6A" opacity="0.15"/>
  <circle cx="400" cy="120" r="10" fill="#7C5CFC" opacity="0.1"/>
  <circle cx="450" cy="300" r="8" fill="#F27B6A" opacity="0.2"/>
</svg>