<svg xmlns="http://www.w3.org/2000/svg" viewBox="0 0 700 450" fill="none">
  <!-- Dashboard screen -->
  <rect x="80" y="30" width="540" height="340" rx="12" fill="white" stroke="#1A1A1A" stroke-width="1.5"/>
  <rect x="80" y="30" width="540" height="24" rx="12" fill="white" stroke="#1A1A1A" stroke-width="1.5"/>
  <circle cx="100" cy="42" r="4" fill="#F27B6A" opacity="0.3"/>
  <circle cx="112" cy="42" r="4" fill="#7C5CFC" opacity="0.3"/>
  <circle cx="124" cy="42" r="4" fill="#1A1A1A" opacity="0.1"/>

  <!-- KPI cards row -->
  <!-- Card 1: Sales -->
  <rect x="100" y="70" width="110" height="70" rx="8" fill="#F5F3EF"/>
  <rect x="112" y="82" width="50" height="4" rx="2" fill="#737373"/>
  <rect x="112" y="96" width="70" height="8" rx="4" fill="#1A1A1A"/>
  <rect x="112" y="112" width="40" height="4" rx="2" fill="#F27B6A" opacity="0.5"/>
  <circle cx="185" cy="90" r="10" fill="#F27B6A" opacity="0.15"/>

  <!-- Card 2: Stock -->
  <rect x="225" y="70" width="110" height="70" rx="8" fill="#F5F3EF"/>
  <rect x="237" y="82" width="50" height="4" rx="2" fill="#737373"/>
  <rect x="237" y="96" width="70" height="8" rx="4" fill="#1A1A1A"/>
  <rect x="237" y="112" width="40" height="4" rx="2" fill="#7C5CFC" opacity="0.5"/>
  <circle cx="310" cy="90" r="10" fill="#7C5CFC" opacity="0.15"/>

  <!-- Card 3: Profit -->
  <rect x="350" y="70" width="110" height="70" rx="8" fill="#F5F3EF"/>
  <rect x="362" y="82" width="50" height="4" rx="2" fill="#737373"/>
  <rect x="362" y="96" width="70" height="8" rx="4" fill="#1A1A1A"/>
  <rect x="362" y="112" width="40" height="4" rx="2" fill="#F27B6A" opacity="0.5"/>
  <circle cx="435" cy="90" r="10" fill="#F27B6A" opacity="0.15"/>

  <!-- Card 4: Pending -->
  <rect x="475" y="70" width="110" height="70" rx="8" fill="#F5F3EF"/>
  <rect x="487" y="82" width="50" height="4" rx="2" fill="#737373"/>
  <rect x="487" y="96" width="70" height="8" rx="4" fill="#1A1A1A"/>
  <rect x="487" y="112" width="40" height="4" rx="2" fill="#1A1A1A" opacity="0.3"/>
  <circle cx="560" cy="90" r="10" fill="#1A1A1A" opacity="0.1"/>

  <!-- Main chart area -->
  <rect x="100" y="155" width="360" height="180" rx="8" fill="#F5F3EF"/>
  <rect x="112" y="167" width="80" height="5" rx="2.5" fill="#1A1A1A"/>
  <rect x="112" y="178" width="50" height="3" rx="1.5" fill="#737373"/>

  <!-- Bar chart -->
  <rect x="120" y="210" width="18" height="60" rx="4" fill="#F27B6A" opacity="0.4"/>
  <rect x="146" y="195" width="18" height="75" rx="4" fill="#F27B6A" opacity="0.6"/>
  <rect x="172" y="180" width="18" height="90" rx="4" fill="#F27B6A"/>
  <rect x="198" y="205" width="18" height="65" rx="4" fill="#7C5CFC" opacity="0.5"/>
  <rect x="224" y="190" width="18" height="80" rx="4" fill="#F27B6A" opacity="0.7"/>
  <rect x="250" y="175" width="18" height="95" rx="4" fill="#F27B6A"/>
  <rect x="276" y="200" width="18" height="70" rx="4" fill="#7C5CFC" opacity="0.4"/>
  <rect x="302" y="215" width="18" height="55" rx="4" fill="#F27B6A" opacity="0.5"/>
  <rect x="328" y="185" width="18" height="85" rx="4" fill="#F27B6A" opacity="0.8"/>
  <rect x="354" y="205" width="18" height="65" rx="4" fill="#7C5CFC" opacity="0.6"/>
  <rect x="380" y="175" width="18" height="95" rx="4" fill="#F27B6A"/>
  <rect x="406" y="195" width="18" height="75" rx="4" fill="#F27B6A" opacity="0.6"/>

  <!-- X axis labels -->
  <rect x="120" y="315" width="10" height="3" rx="1.5" fill="#737373"/>
  <rect x="250" y="315" width="10" height="3" rx="1.5" fill="#737373"/>
  <rect x="380" y="315" width="10" height="3" rx="1.5" fill="#737373"/>

  <!-- Side panel: Top products -->
  <rect x="475" y="155" width="120" height="180" rx="8" fill="#F5F3EF"/>
  <rect x="487" y="167" width="70" height="5" rx="2.5" fill="#1A1A1A"/>
  <rect x="487" y="178" width="50" height="3" rx="1.5" fill="#737373"/>

  <!-- Product rows -->
  <rect x="487" y="198" width="96" height="24" rx="4" fill="white"/>
  <circle cx="498" cy="210" r="6" fill="#F27B6A" opacity="0.3"/>
  <rect x="512" y="206" width="50" height="3" rx="1.5" fill="#1A1A1A"/>
  <rect x="512" y="214" width="30" height="3" rx="1.5" fill="#737373"/>

  <rect x="487" y="230" width="96" height="24" rx="4" fill="white"/>
  <circle cx="498" cy="242" r="6" fill="#7C5CFC" opacity="0.3"/>
  <rect x="512" y="238" width="50" height="3" rx="1.5" fill="#1A1A1A"/>
  <rect x="512" y="246" width="30" height="3" rx="1.5" fill="#737373"/>

  <rect x="487" y="262" width="96" height="24" rx="4" fill="white"/>
  <circle cx="498" cy="274" r="6" fill="#1A1A1A" opacity="0.15"/>
  <rect x="512" y="270" width="50" height="3" rx="1.5" fill="#1A1A1A"/>
  <rect x="512" y="278" width="30" height="3" rx="1.5" fill="#737373"/>

  <rect x="487" y="294" width="96" height="24" rx="4" fill="white"/>
  <circle cx="498" cy="306" r="6" fill="#F27B6A" opacity="0.2"/>
  <rect x="512" y="302" width="50" height="3" rx="1.5" fill="#1A1A1A"/>
  <rect x="512" y="310" width="30" height="3" rx="1.5" fill="#737373"/>

  <!-- Bottom: Date range selector -->
  <rect x="100" y="345" width="360" height="24" rx="6" fill="white" stroke="#E5E5E5" stroke-width="1"/>
  <rect x="115" y="353" width="50" height="4" rx="2" fill="#737373"/>
  <rect x="180" y="353" width="4" height="4" rx="2" fill="#737373"/>
  <rect x="200" y="353" width="50" height="4" rx="2" fill="#737373"/>
  <rect x="420" y="350" width="24" height="14" rx="4" fill="#F27B6A" opacity="0.15"/>
  <path d="M 426 354 L 430 358 L 434 352" stroke="#F27B6A" stroke-width="1.5" stroke-linecap="round" stroke-linejoin="round"/>

  <!-- Floating elements -->
  <circle cx="40" cy="100" r="8" fill="#F27B6A" opacity="0.15"/>
  <circle cx="660" cy="80" r="10" fill="#7C5CFC" opacity="0.1"/>
  <circle cx="650" cy="280" r="8" fill="#F27B6A" opacity="0.2"/>
  <circle cx="50" cy="300" r="6" fill="#7C5CFC" opacity="0.15"/>

  <!-- "Export" floating badge right -->
  <rect x="630" y="180" width="50" height="28" rx="6" fill="white" stroke="#E5E5E5" stroke-width="1"/>
  <rect x="640" y="192" width="20" height="4" rx="2" fill="#737373"/>
  <path d="M 615 194 L 625 194" stroke="#E5E5E5" stroke-width="1" stroke-dasharray="3 3"/>
</svg>