<svg xmlns="http://www.w3.org/2000/svg" fill="none" viewBox="0 0 800 600"><g opacity=".12"><circle cx="100" cy="500" r="2" fill="#1A1A1A"/><circle cx="140" cy="500" r="2" fill="#1A1A1A"/><circle cx="180" cy="500" r="2" fill="#1A1A1A"/><circle cx="220" cy="500" r="2" fill="#1A1A1A"/><circle cx="260" cy="500" r="2" fill="#1A1A1A"/><circle cx="120" cy="520" r="2" fill="#1A1A1A"/><circle cx="160" cy="520" r="2" fill="#1A1A1A"/><circle cx="200" cy="520" r="2" fill="#1A1A1A"/><circle cx="240" cy="520" r="2" fill="#1A1A1A"/><circle cx="140" cy="540" r="2" fill="#1A1A1A"/><circle cx="180" cy="540" r="2" fill="#1A1A1A"/><circle cx="220" cy="540" r="2" fill="#1A1A1A"/></g><path fill="#262626" stroke="#1A1A1A" stroke-width="1.5" d="M200 220 L320 160 L440 220 L320 280Z"/><path fill="#1A1A1A" stroke="#1A1A1A" stroke-width="1.5" d="M200 220 L200 340 L320 400 L320 280Z"/><path fill="#333" stroke="#1A1A1A" stroke-width="1.5" d="M320 280 L320 400 L440 340 L440 220Z"/><rect width="80" height="6" x="240" y="200" fill="#F27B6A" rx="1" transform="skewX(-30)"/><rect width="140" height="4" x="240" y="215" fill="#FFF" opacity=".4" rx="1" transform="skewX(-30)"/><rect width="120" height="4" x="240" y="225" fill="#FFF" opacity=".25" rx="1" transform="skewX(-30)"/><path fill="#F27B6A" stroke="#E56A5A" stroke-width="1.5" d="M160 360 L220 330 L280 360 L220 390Z"/><path fill="#E56A5A" stroke="#E56A5A" stroke-width="1.5" d="M160 360 L160 400 L220 430 L220 390Z"/><path fill="#F27B6A" stroke="#E56A5A" stroke-width="1.5" d="M220 390 L220 430 L280 400 L280 360Z"/><path fill="none" stroke="#FFF" stroke-linecap="round" stroke-width="2" d="M185 365 L200 358 L215 368 L230 352"/><circle cx="200" cy="358" r="2.5" fill="#FFF"/><circle cx="215" cy="368" r="2.5" fill="#FFF"/><circle cx="230" cy="352" r="2.5" fill="#FFF"/><path fill="#7C5CFC" stroke="#6B4BE8" stroke-width="1.5" d="M380 300 L460 260 L540 300 L460 340Z"/><path fill="#6B4BE8" stroke="#6B4BE8" stroke-width="1.5" d="M380 300 L380 360 L460 400 L460 340Z"/><path fill="#7C5CFC" stroke="#6B4BE8" stroke-width="1.5" d="M460 340 L460 400 L540 360 L540 300Z"/><rect width="12" height="20" x="410" y="305" fill="#FFF" opacity=".6" rx="1" transform="skewX(-30)"/><rect width="12" height="30" x="430" y="295" fill="#FFF" opacity=".8" rx="1" transform="skewX(-30)"/><rect width="12" height="40" x="450" y="285" fill="#FFF" rx="1" transform="skewX(-30)"/><path fill="#FFF" stroke="#E5E5E5" stroke-width="1.5" d="M480 200 L560 160 L640 200 L560 240Z"/><path fill="#F5F3EF" stroke="#E5E5E5" stroke-width="1.5" d="M480 200 L480 240 L560 280 L560 240Z"/><path fill="#FAF9F7" stroke="#E5E5E5" stroke-width="1.5" d="M560 240 L560 280 L640 240 L640 200Z"/><rect width="50" height="5" x="510" y="185" fill="#F27B6A" rx="1" transform="skewX(-30)"/><rect width="70" height="3" x="510" y="195" fill="#1A1A1A" opacity=".15" rx="1" transform="skewX(-30)"/><rect width="60" height="3" x="510" y="202" fill="#1A1A1A" opacity=".1" rx="1" transform="skewX(-30)"/><path fill="#F27B6A" stroke="#E56A5A" stroke-width="1" d="M620 280 L650 265 L680 280 L650 295Z"/><path fill="#E56A5A" stroke="#E56A5A" stroke-width="1" d="M620 280 L620 300 L650 315 L650 295Z"/><path fill="#F27B6A" stroke="#E56A5A" stroke-width="1" d="M650 295 L650 315 L680 300 L680 280Z"/><line x1="280" x2="380" y1="360" y2="300" stroke="#1A1A1A" stroke-dasharray="6 4" stroke-width="1" opacity=".2"/><line x1="440" x2="480" y1="280" y2="200" stroke="#1A1A1A" stroke-dasharray="6 4" stroke-width="1" opacity=".2"/><line x1="540" x2="620" y1="300" y2="280" stroke="#1A1A1A" stroke-dasharray="6 4" stroke-width="1" opacity=".15"/><rect width="90" height="28" x="580" y="140" fill="#F27B6A" rx="4"/><text x="625" y="159" fill="#fff" font-family="Inter, sans-serif" font-size="11" font-weight="600" text-anchor="middle">+24% Growth</text><rect width="80" height="24" x="130" y="290" fill="#7C5CFC" rx="4"/><text x="170" y="307" fill="#fff" font-family="Inter, sans-serif" font-size="10" font-weight="600" text-anchor="middle">Live Sync</text><circle cx="680" cy="180" r="8" fill="#F27B6A" opacity=".3"/><circle cx="700" cy="200" r="5" fill="#7C5CFC" opacity=".4"/><circle cx="150" cy="180" r="6" fill="#7C5CFC" opacity=".25"/><circle cx="120" cy="210" r="4" fill="#F27B6A" opacity=".35"/><line x1="50" x2="750" y1="450" y2="450" stroke="#1A1A1A" stroke-width=".5" opacity=".06"/><line x1="50" x2="750" y1="480" y2="480" stroke="#1A1A1A" stroke-width=".5" opacity=".06"/></svg>