<svg xmlns="http://www.w3.org/2000/svg" style="display:none">
  <defs>
    <style>
      .icon-solid { fill: currentColor; }
    </style>
  </defs>

  <!-- check-circle -->
  <symbol id="icon-check" viewBox="0 0 24 24">
    <path class="icon-solid" d="M12 2C6.48 2 2 6.48 2 12s4.48 10 10 10 10-4.48 10-10S17.52 2 12 2zm-2 15l-5-5 1.41-1.41L10 14.17l7.59-7.59L19 8l-9 9z"/>
  </symbol>

  <!-- notebook/document -->
  <symbol id="icon-notebook" viewBox="0 0 24 24">
    <path class="icon-solid" d="M14 2H6c-1.1 0-1.99.9-1.99 2L4 20c0 1.1.89 2 1.99 2H18c1.1 0 2-.9 2-2V8l-6-6zm2 16H8v-2h8v2zm0-4H8v-2h8v2zm-3-5V3.5L18.5 9H13z"/>
  </symbol>

  <!-- money/coins -->
  <symbol id="icon-money" viewBox="0 0 24 24">
    <path class="icon-solid" d="M11.8 10.9c-2.27-.59-3-1.2-3-2.15 0-1.09 1.01-1.85 2.7-1.85 1.78 0 2.44.85 2.5 2.1h2.21c-.07-1.72-1.12-3.3-3.21-3.81V3h-3v2.16c-1.94.42-3.5 1.68-3.5 3.61 0 2.31 1.91 3.46 4.7 4.13 2.5.6 3 1.48 3 2.41 0 .69-.49 1.79-2.7 1.79-2.06 0-2.87-.92-2.98-2.1h-2.2c.12 2.19 1.76 3.42 3.68 3.83V21h3v-2.15c1.95-.37 3.5-1.5 3.5-3.55 0-2.84-2.43-3.81-4.7-4.4z"/>
  </symbol>

  <!-- clock -->
  <symbol id="icon-clock" viewBox="0 0 24 24">
    <path class="icon-solid" d="M11.99 2C6.47 2 2 6.48 2 12s4.47 10 9.99 10C17.52 22 22 17.52 22 12S17.52 2 11.99 2zM12 20c-4.42 0-8-3.58-8-8s3.58-8 8-8 8 3.58 8 8-3.58 8-8 8zm.5-13H11v6l5.25 3.15.75-1.23-4.5-2.67z"/>
  </symbol>

  <!-- building -->
  <symbol id="icon-building" viewBox="0 0 24 24">
    <path class="icon-solid" d="M19 3H5c-1.1 0-2 .9-2 2v14c0 1.1.9 2 2 2h14c1.1 0 2-.9 2-2V5c0-1.1-.9-2-2-2zM9 17H7v-7h2v7zm4 0h-2V7h2v10zm4 0h-2v-4h2v4z"/>
  </symbol>

  <!-- chart -->
  <symbol id="icon-chart" viewBox="0 0 24 24">
    <path class="icon-solid" d="M19 3H5c-1.1 0-2 .9-2 2v14c0 1.1.9 2 2 2h14c1.1 0 2-.9 2-2V5c0-1.1-.9-2-2-2zM9 17H7v-5h2v5zm4 0h-2v-3h2v3zm4 0h-2V7h2v10z"/>
  </symbol>

  <!-- phone/mobile -->
  <symbol id="icon-phone" viewBox="0 0 24 24">
    <path class="icon-solid" d="M17 1.01L7 1c-1.1 0-2 .9-2 2v18c0 1.1.9 2 2 2h10c1.1 0 2-.9 2-2V3c0-1.1-.9-1.99-2-1.99zM17 19H7V5h10v14z"/>
  </symbol>

  <!-- globe/connectivity -->
  <symbol id="icon-globe" viewBox="0 0 24 24">
    <path class="icon-solid" d="M12 2C6.48 2 2 6.48 2 12s4.48 10 10 10 10-4.48 10-10S17.52 2 12 2zm-1 17.93c-3.95-.49-7-3.85-7-7.93 0-.62.08-1.21.21-1.79L9 15v1c0 1.1.9 2 2 2v1.93zm6.9-2.54c-.26-.81-1-1.39-1.9-1.39h-1v-3c0-.55-.45-1-1-1H8v-2h2c.55 0 1-.45 1-1V7h2c1.1 0 2-.9 2-2v-.41c2.93 1.19 5 4.06 5 7.41 0 2.08-.8 3.97-2.1 5.39z"/>
  </symbol>

  <!-- zap/lightning -->
  <symbol id="icon-zap" viewBox="0 0 24 24">
    <path class="icon-solid" d="M11 21h-1l1-7H7.5c-.58 0-.57-.32-.38-.66.19-.34.05-.08.07-.12C8.48 10.94 10.42 7.54 13 3h1l-1 7h3.5c.49 0 .56.33.47.51l-.07.15C12.96 17.55 11 21 11 21z"/>
  </symbol>

  <!-- coin/gold -->
  <symbol id="icon-coin" viewBox="0 0 24 24">
    <path class="icon-solid" d="M12 2C6.48 2 2 6.48 2 12s4.48 10 10 10 10-4.48 10-10S17.52 2 12 2zm0 18c-4.41 0-8-3.59-8-8s3.59-8 8-8 8 3.59 8 8-3.59 8-8 8zm.31-8.86c-1.77-.45-2.34-.94-2.34-1.67 0-.84.79-1.43 2.1-1.43 1.38 0 1.9.66 1.94 1.64h1.71c-.05-1.34-.87-2.57-2.49-2.97V5H10.9v1.69c-1.51.32-2.72 1.3-2.72 2.81 0 1.79 1.49 2.69 3.66 3.21 1.95.46 2.34 1.15 2.34 1.87 0 .53-.39 1.39-2.1 1.39-1.6 0-2.23-.72-2.32-1.64H8.04c.1 1.7 1.36 2.66 2.86 3v1.67h2.11V15.5c1.62-.29 2.89-1.27 2.89-3.19 0-2.37-2.03-3.18-3.59-3.17z"/>
  </symbol>

  <!-- recycle -->
  <symbol id="icon-recycle" viewBox="0 0 24 24">
    <path class="icon-solid" d="M12 6v3l4-4-4-4v3c-4.42 0-8 3.58-8 8 0 1.57.46 3.03 1.24 4.26L6.7 14.8c-.45-.83-.7-1.79-.7-2.8 0-3.31 2.69-6 6-6zm6.76 1.74L17.3 9.2c.44.84.7 1.79.7 2.8 0 3.31-2.69 6-6 6v-3l-4 4 4 4v-3c4.42 0 8-3.58 8-8 0-1.57-.46-3.03-1.24-4.26z"/>
  </symbol>

  <!-- cart -->
  <symbol id="icon-cart" viewBox="0 0 24 24">
    <path class="icon-solid" d="M7 18c-1.1 0-1.99.9-1.99 2S5.9 22 7 22s2-.9 2-2-.9-2-2-2zM1 2v2h2l3.6 7.59-1.35 2.45c-.16.28-.25.61-.25.96 0 1.1.9 2 2 2h12v-2H7.42c-.14 0-.25-.11-.25-.25l.03-.12.9-1.63h7.45c.75 0 1.41-.41 1.75-1.03l3.58-6.49c.08-.14.12-.31.12-.48 0-.55-.45-1-1-1H5.21l-.94-2H1zm16 16c-1.1 0-1.99.9-1.99 2s.89 2 1.99 2 2-.9 2-2-.9-2-2-2z"/>
  </symbol>

  <!-- school -->
  <symbol id="icon-school" viewBox="0 0 24 24">
    <path class="icon-solid" d="M5 13.18v4L12 21l7-3.82v-4L12 17l-7-3.82zM12 3L1 9l11 6 9-4.91V17h2V9L12 3z"/>
  </symbol>

  <!-- car -->
  <symbol id="icon-car" viewBox="0 0 24 24">
    <path class="icon-solid" d="M18.92 6.01C18.72 5.42 18.16 5 17.5 5h-11c-.66 0-1.21.42-1.42 1.01L3 12v8c0 .55.45 1 1 1h1c.55 0 1-.45 1-1v-1h12v1c0 .55.45 1 1 1h1c.55 0 1-.45 1-1v-8l-2.08-5.99zM6.5 16c-.83 0-1.5-.67-1.5-1.5S5.67 13 6.5 13s1.5.67 1.5 1.5S7.33 16 6.5 16zm11 0c-.83 0-1.5-.67-1.5-1.5s.67-1.5 1.5-1.5 1.5.67 1.5 1.5-.67 1.5-1.5 1.5zM5 11l1.5-4.5h11L19 11H5z"/>
  </symbol>

  <!-- box/package -->
  <symbol id="icon-box" viewBox="0 0 24 24">
    <path class="icon-solid" d="M19 3H5c-1.1 0-2 .9-2 2v14c0 1.1.9 2 2 2h14c1.1 0 2-.9 2-2V5c0-1.1-.9-2-2-2zm-7 9h-2V7h-2v5H6v2h2v5h2v-5h2v-2zm6 0h-2V7h-2v5h-2v2h2v5h2v-5h2v-2z"/>
  </symbol>

  <!-- pickaxe/mining -->
  <symbol id="icon-pickaxe" viewBox="0 0 24 24">
    <path class="icon-solid" d="M22.7 1.3c-.4-.4-1-.4-1.4 0l-4.5 4.5c-.6-.5-1.4-.8-2.2-.8-1.1 0-2.1.5-2.8 1.3L6.8 11.2c-.8.8-1.3 1.8-1.3 2.8 0 .8.3 1.6.8 2.2l-4.5 4.5c-.4.4-.4 1 0 1.4.2.2.5.3.7.3s.5-.1.7-.3l4.5-4.5c.6.5 1.4.8 2.2.8 1.1 0 2.1-.5 2.8-1.3l4.6-4.6c.8-.8 1.3-1.8 1.3-2.8 0-.8-.3-1.6-.8-2.2l4.5-4.5c.4-.4.4-1 0-1.4z"/>
  </symbol>

  <!-- tag -->
  <symbol id="icon-tag" viewBox="0 0 24 24">
    <path class="icon-solid" d="M21.41 11.58l-9-9C12.05 2.22 11.55 2 11 2H4c-1.1 0-2 .9-2 2v7c0 .55.22 1.05.59 1.42l9 9c.36.36.86.58 1.41.58.55 0 1.05-.22 1.41-.59l7-7c.37-.36.59-.86.59-1.41 0-.55-.23-1.06-.59-1.42zM5.5 7C4.67 7 4 6.33 4 5.5S4.67 4 5.5 4 7 4.67 7 5.5 6.33 7 5.5 7z"/>
  </symbol>

  <!-- circle/dot -->
  <symbol id="icon-circle" viewBox="0 0 24 24">
    <circle class="icon-solid" cx="12" cy="12" r="10"/>
  </symbol>

  <!-- users/people -->
  <symbol id="icon-users" viewBox="0 0 24 24">
    <path class="icon-solid" d="M16 11c1.66 0 2.99-1.34 2.99-3S17.66 5 16 5c-1.66 0-3 1.34-3 3s1.34 3 3 3zm-8 0c1.66 0 2.99-1.34 2.99-3S9.66 5 8 5C6.34 5 5 6.34 5 8s1.34 3 3 3zm0 2c-2.33 0-7 1.17-7 3.5V19h14v-2.5c0-2.33-4.67-3.5-7-3.5zm8 0c-.29 0-.62.02-.97.05 1.16.84 1.97 1.97 1.97 3.45V19h6v-2.5c0-2.33-4.67-3.5-7-3.5z"/>
  </symbol>

  <!-- tools/wrench -->
  <symbol id="icon-tools" viewBox="0 0 24 24">
    <path class="icon-solid" d="M22.7 2.3c-.4-.4-1-.4-1.4 0l-4.5 4.5c-.6-.5-1.4-.8-2.2-.8-1.1 0-2.1.5-2.8 1.3L7.2 11.2c-.8.8-1.3 1.8-1.3 2.8 0 .8.3 1.6.8 2.2l-4.5 4.5c-.4.4-.4 1 0 1.4.2.2.5.3.7.3s.5-.1.7-.3l4.5-4.5c.6.5 1.4.8 2.2.8 1.1 0 2.1-.5 2.8-1.3l4.6-4.6c.8-.8 1.3-1.8 1.3-2.8 0-.8-.3-1.6-.8-2.2l4.5-4.5c.4-.4.4-1 0-1.4z"/>
  </symbol>

  <!-- shield/security -->
  <symbol id="icon-shield" viewBox="0 0 24 24">
    <path class="icon-solid" d="M12 1L3 5v6c0 5.55 3.84 10.74 9 12 5.16-1.26 9-6.45 9-12V5l-9-4z"/>
  </symbol>

  <!-- star -->
  <symbol id="icon-star" viewBox="0 0 24 24">
    <path class="icon-solid" d="M12 17.27L18.18 21l-1.64-7.03L22 9.24l-7.19-.61L12 2 9.19 8.63 2 9.24l5.46 4.73L5.82 21z"/>
  </symbol>

  <!-- arrow-right -->
  <symbol id="icon-arrow" viewBox="0 0 24 24">
    <path class="icon-solid" d="M12 4l-1.41 1.41L16.17 11H4v2h12.17l-5.58 5.59L12 20l8-8z"/>
  </symbol>
</svg>
