<svg xmlns="http://www.w3.org/2000/svg" fill="none" viewBox="0 0 600 400"><circle cx="120" cy="120" r="40" fill="none" stroke="#1A1A1A" stroke-width="1.5" opacity=".15"/><rect width="30" height="20" x="105" y="108" fill="none" stroke="#1A1A1A" stroke-width="1.5" rx="3"/><circle cx="120" cy="118" r="6" fill="#1A1A1A"/><path fill="#1A1A1A" d="M135 118 L142 115 L142 121Z"/><line x1="155" x2="220" y1="135" y2="195" stroke="#7C5CFC" stroke-dasharray="4 3" stroke-width="1.5"/><circle cx="480" cy="120" r="40" fill="none" stroke="#1A1A1A" stroke-width="1.5" opacity=".15"/><rect width="30" height="20" x="465" y="108" fill="none" stroke="#1A1A1A" stroke-width="1.5" rx="3"/><circle cx="480" cy="118" r="6" fill="#1A1A1A"/><path fill="#1A1A1A" d="M495 118 L502 115 L502 121Z"/><line x1="445" x2="380" y1="135" y2="195" stroke="#7C5CFC" stroke-dasharray="4 3" stroke-width="1.5"/><circle cx="120" cy="300" r="40" fill="none" stroke="#1A1A1A" stroke-width="1.5" opacity=".15"/><rect width="30" height="20" x="105" y="288" fill="none" stroke="#1A1A1A" stroke-width="1.5" rx="3"/><circle cx="120" cy="298" r="6" fill="#1A1A1A"/><path fill="#1A1A1A" d="M135 298 L142 295 L142 301Z"/><line x1="155" x2="220" y1="285" y2="225" stroke="#7C5CFC" stroke-dasharray="4 3" stroke-width="1.5"/><circle cx="480" cy="300" r="40" fill="none" stroke="#1A1A1A" stroke-width="1.5" opacity=".15"/><rect width="30" height="20" x="465" y="288" fill="none" stroke="#1A1A1A" stroke-width="1.5" rx="3"/><circle cx="480" cy="298" r="6" fill="#1A1A1A"/><path fill="#1A1A1A" d="M495 298 L502 295 L502 301Z"/><line x1="445" x2="380" y1="285" y2="225" stroke="#7C5CFC" stroke-dasharray="4 3" stroke-width="1.5"/><rect width="100" height="80" x="250" y="160" fill="none" stroke="#1A1A1A" stroke-width="2" rx="6"/><rect width="80" height="50" x="260" y="170" fill="#1A1A1A" opacity=".04" rx="3"/><line x1="300" x2="300" y1="170" y2="220" stroke="#1A1A1A" stroke-width=".5" opacity=".2"/><line x1="260" x2="340" y1="195" y2="195" stroke="#1A1A1A" stroke-width=".5" opacity=".2"/><circle cx="270" cy="180" r="2" fill="#F27B6A"/><circle cx="310" cy="180" r="2" fill="#F27B6A"/><circle cx="270" cy="205" r="2" fill="#F27B6A"/><circle cx="310" cy="205" r="2" fill="#7C5CFC"/><line x1="300" x2="300" y1="240" y2="260" stroke="#1A1A1A" stroke-width="2"/><rect width="40" height="6" x="280" y="260" fill="#1A1A1A" opacity=".2" rx="2"/><rect width="70" height="24" x="340" y="140" fill="#F27B6A" rx="4"/><text x="375" y="157" fill="#fff" font-family="Inter, sans-serif" font-size="10" font-weight="600" text-anchor="middle">Motion Alert</text><circle y="152" cx="265" r="5" fill="#F27B6A"/><text x="265" y="155" fill="#fff" font-family="Inter, sans-serif" font-size="6" font-weight="700" text-anchor="middle">REC</text><text x="120" y="80" fill="#1A1A1A" font-family="Inter, sans-serif" font-size="11" font-weight="600" text-anchor="middle">Cam 1</text><text x="480" y="80" fill="#1A1A1A" font-family="Inter, sans-serif" font-size="11" font-weight="600" text-anchor="middle">Cam 2</text><text x="120" y="360" fill="#1A1A1A" font-family="Inter, sans-serif" font-size="11" font-weight="600" text-anchor="middle">Cam 3</text><text x="480" y="360" fill="#1A1A1A" font-family="Inter, sans-serif" font-size="11" font-weight="600" text-anchor="middle">Cam 4</text><text x="300" y="285" fill="#1A1A1A" font-family="Inter, sans-serif" font-size="12" font-weight="600" text-anchor="middle">Monitor</text><circle cx="50" cy="50" r="4" fill="#F27B6A" opacity=".4"/><circle cx="550" cy="50" r="3" fill="#7C5CFC" opacity=".4"/></svg>