<svg xmlns="http://www.w3.org/2000/svg" fill="none" viewBox="0 0 600 400"><rect width="60" height="80" x="70" y="140" fill="none" stroke="#1A1A1A" stroke-width="2" rx="4"/><rect width="44" height="18" x="78" y="150" fill="#1A1A1A" opacity=".06" rx="2"/><rect width="25" height="4" x="82" y="156" fill="#1A1A1A" opacity=".2" rx="1"/><rect width="10" height="10" x="78" y="174" fill="#1A1A1A" opacity=".1" rx="1"/><rect width="10" height="10" x="92" y="174" fill="#1A1A1A" opacity=".1" rx="1"/><rect width="10" height="10" x="106" y="174" fill="#1A1A1A" opacity=".1" rx="1"/><rect width="10" height="10" x="78" y="188" fill="#1A1A1A" opacity=".1" rx="1"/><rect width="10" height="10" x="92" y="188" fill="#1A1A1A" opacity=".1" rx="1"/><rect width="10" height="10" x="106" y="188" fill="#F27B6A" opacity=".4" rx="1"/><rect width="38" height="10" x="78" y="202" fill="#7C5CFC" opacity=".2" rx="1"/><line x1="135" x2="175" y1="180" y2="180" stroke="#7C5CFC" stroke-width="2"/><polygon fill="#7C5CFC" points="175 180 167 175 167 185"/><path fill="none" stroke="#1A1A1A" stroke-width="2" d="M200 155 L230 140 L260 155 L260 195 L230 210 L200 195Z"/><path fill="#1A1A1A" d="M215 165 L230 155 L245 165 L245 185 L230 195 L215 185Z" opacity=".06"/><text x="230" y="182" fill="#1A1A1A" font-family="Inter, sans-serif" font-size="14" font-weight="700" text-anchor="middle">Z</text><line x1="265" x2="305" y1="180" y2="180" stroke="#7C5CFC" stroke-width="2"/><polygon fill="#7C5CFC" points="305 180 297 175 297 185"/><rect width="50" height="65" x="320" y="150" fill="none" stroke="#1A1A1A" stroke-width="1" opacity=".3" rx="3" transform="rotate(-5 345 182)"/><rect width="50" height="65" x="325" y="148" fill="none" stroke="#1A1A1A" stroke-width="1" opacity=".5" rx="3" transform="rotate(-2 350 180)"/><rect width="50" height="65" x="330" y="145" fill="none" stroke="#1A1A1A" stroke-width="2" rx="3"/><rect width="34" height="3" x="338" y="158" fill="#1A1A1A" opacity=".15" rx="1"/><rect width="25" height="3" x="338" y="168" fill="#1A1A1A" opacity=".1" rx="1"/><rect width="30" height="3" x="338" y="178" fill="#1A1A1A" opacity=".1" rx="1"/><rect width="20" height="3" x="338" y="188" fill="#F27B6A" opacity=".4" rx="1"/><line x1="385" x2="425" y1="180" y2="180" stroke="#7C5CFC" stroke-width="2"/><polygon fill="#7C5CFC" points="425 180 417 175 417 185"/><circle cx="470" cy="180" r="40" fill="none" stroke="#7C5CFC" stroke-width="2"/><circle cx="470" cy="180" r="35" fill="#7C5CFC" opacity=".08"/><path fill="none" stroke="#7C5CFC" stroke-linecap="round" stroke-linejoin="round" stroke-width="3" d="M455 180 L465 190 L485 168"/><text x="100" y="270" fill="#1A1A1A" font-family="Inter, sans-serif" font-size="12" font-weight="600" text-anchor="middle">Calculate</text><text x="230" y="270" fill="#1A1A1A" font-family="Inter, sans-serif" font-size="12" font-weight="600" text-anchor="middle">ZIMRA</text><text x="355" y="270" fill="#1A1A1A" font-family="Inter, sans-serif" font-size="12" font-weight="600" text-anchor="middle">Report</text><text x="470" y="270" fill="#1A1A1A" font-family="Inter, sans-serif" font-size="12" font-weight="600" text-anchor="middle">Compliant</text><line x1="100" x2="470" y1="250" y2="250" stroke="#1A1A1A" stroke-dasharray="4 4" stroke-width=".5" opacity=".1"/><circle cx="50" cy="120" r="4" fill="#F27B6A" opacity=".4"/><circle cx="550" cy="120" r="3" fill="#7C5CFC" opacity=".4"/><circle cx="50" cy="320" r="3" fill="#7C5CFC" opacity=".3"/></svg>