<svg xmlns="http://www.w3.org/2000/svg" fill="none" viewBox="0 0 600 400"><path fill="#262626" stroke="#1A1A1A" stroke-width="1.5" d="M80 200 L140 170 L200 200 L140 230Z"/><path fill="#1A1A1A" stroke="#1A1A1A" stroke-width="1.5" d="M80 200 L80 260 L140 290 L140 230Z"/><path fill="#333" stroke="#1A1A1A" stroke-width="1.5" d="M140 230 L140 290 L200 260 L200 200Z"/><path fill="#F27B6A" stroke="#E56A5A" stroke-width="1" d="M110 200 L140 185 L170 200 L140 215Z"/><path fill="#E56A5A" stroke="#E56A5A" stroke-width="1" d="M110 200 L110 220 L140 235 L140 215Z"/><path fill="#F27B6A" stroke="#E56A5A" stroke-width="1" d="M140 215 L140 235 L170 220 L170 200Z"/><line x1="200" x2="260" y1="245" y2="245" stroke="#7C5CFC" stroke-width="2"/><polygon fill="#7C5CFC" points="260 245 252 240 252 250"/><path fill="#7C5CFC" stroke="#6B4BE8" stroke-width="1.5" d="M260 215 L320 185 L380 215 L320 245Z"/><path fill="#6B4BE8" stroke="#6B4BE8" stroke-width="1.5" d="M260 215 L260 275 L320 305 L320 245Z"/><path fill="#7C5CFC" stroke="#6B4BE8" stroke-width="1.5" d="M320 245 L320 305 L380 275 L380 215Z"/><line x1="290" x2="350" y1="220" y2="220" stroke="#FFF" stroke-linecap="round" stroke-width="2"/><line x1="320" x2="320" y1="220" y2="235" stroke="#FFF" stroke-width="2"/><rect width="36" height="10" x="300" y="205" fill="#FFF" opacity=".8" rx="1" transform="skewX(-30)"/><line x1="380" x2="440" y1="260" y2="260" stroke="#7C5CFC" stroke-width="2"/><polygon fill="#7C5CFC" points="440 260 432 255 432 265"/><path fill="#F27B6A" stroke="#E56A5A" stroke-width="1.5" d="M440 230 L500 200 L560 230 L500 260Z"/><path fill="#E56A5A" stroke="#E56A5A" stroke-width="1.5" d="M440 230 L440 290 L500 320 L500 260Z"/><path fill="#F27B6A" stroke="#E56A5A" stroke-width="1.5" d="M500 260 L500 320 L560 290 L560 230Z"/><path fill="#FFF" stroke="#FFF" stroke-width=".5" d="M470 235 L500 220 L530 235 L500 250Z" opacity=".3"/><path fill="#FFF" stroke="#FFF" stroke-width=".5" d="M470 248 L500 233 L530 248 L500 263Z" opacity=".5"/><path fill="#FFF" stroke="#FFF" stroke-width=".5" d="M470 261 L500 246 L530 261 L500 276Z" opacity=".7"/><line x1="500" x2="500" y1="320" y2="340" stroke="#1A1A1A" stroke-width="2"/><polygon fill="#1A1A1A" points="500 340 495 332 505 332"/><path fill="#FFF" stroke="#E5E5E5" stroke-width="1.5" d="M440 360 L500 330 L560 360 L500 390Z"/><path fill="#F5F3EF" stroke="#E5E5E5" stroke-width="1.5" d="M440 360 L440 390 L500 420 L500 390Z"/><path fill="#FAF9F7" stroke="#E5E5E5" stroke-width="1.5" d="M500 390 L500 420 L560 390 L560 360Z"/><rect width="50" height="4" x="470" y="355" fill="#1A1A1A" opacity=".2" rx="1" transform="skewX(-30)"/><rect width="30" height="3" x="470" y="363" fill="#F27B6A" rx="1" transform="skewX(-30)"/><rect width="40" height="3" x="470" y="370" fill="#1A1A1A" opacity=".1" rx="1" transform="skewX(-30)"/><text x="140" y="320" fill="#1A1A1A" font-family="Inter, sans-serif" font-size="12" font-weight="600" text-anchor="middle">Intake</text><text x="320" y="335" fill="#1A1A1A" font-family="Inter, sans-serif" font-size="12" font-weight="600" text-anchor="middle">Weigh</text><text x="500" y="350" fill="#1A1A1A" font-family="Inter, sans-serif" font-size="12" font-weight="600" text-anchor="middle">Store</text><text x="500" y="445" fill="#1A1A1A" font-family="Inter, sans-serif" font-size="12" font-weight="600" text-anchor="middle">Settle</text><circle cx="60" cy="180" r="4" fill="#F27B6A" opacity=".4"/><circle cx="580" cy="180" r="3" fill="#7C5CFC" opacity=".4"/><circle cx="60" cy="380" r="3" fill="#7C5CFC" opacity=".3"/></svg>