<svg xmlns="http://www.w3.org/2000/svg" fill="none" viewBox="0 0 600 400"><circle cx="100" cy="180" r="45" fill="none" stroke="#1A1A1A" stroke-width="1.5" opacity=".12"/><circle cx="100" cy="180" r="38" fill="#1A1A1A" opacity=".04"/><circle cx="90" cy="168" r="8" fill="#1A1A1A" opacity=".6"/><path fill="none" stroke="#1A1A1A" stroke-linecap="round" stroke-width="1.5" d="M78 190 Q90 178 102 190"/><circle cx="115" cy="172" r="6" fill="#1A1A1A" opacity=".4"/><path fill="none" stroke="#1A1A1A" stroke-linecap="round" stroke-width="1.5" d="M106 188 Q115 180 124 188"/><line x1="150" x2="190" y1="180" y2="180" stroke="#7C5CFC" stroke-width="2"/><polygon fill="#7C5CFC" points="190 180 182 175 182 185"/><circle cx="240" cy="180" r="45" fill="none" stroke="#7C5CFC" stroke-width="2"/><circle cx="240" cy="180" r="38" fill="#7C5CFC" opacity=".06"/><circle cx="240" cy="180" r="22" fill="none" stroke="#7C5CFC" stroke-width="1.5"/><line x1="240" x2="240" y1="180" y2="166" stroke="#7C5CFC" stroke-linecap="round" stroke-width="2"/><line x1="240" x2="252" y1="180" y2="186" stroke="#7C5CFC" stroke-linecap="round" stroke-width="1.5"/><line x1="240" x2="240" y1="154" y2="158" stroke="#7C5CFC" stroke-width="1"/><line x1="240" x2="240" y1="202" y2="206" stroke="#7C5CFC" stroke-width="1"/><line x1="218" x2="222" y1="180" y2="180" stroke="#7C5CFC" stroke-width="1"/><line x1="258" x2="262" y1="180" y2="180" stroke="#7C5CFC" stroke-width="1"/><line x1="290" x2="330" y1="180" y2="180" stroke="#7C5CFC" stroke-width="2"/><polygon fill="#7C5CFC" points="330 180 322 175 322 185"/><rect width="60" height="80" x="350" y="140" fill="none" stroke="#F27B6A" stroke-width="2" rx="4"/><rect width="44" height="18" x="358" y="150" fill="#F27B6A" opacity=".08" rx="2"/><rect width="25" height="3" x="362" y="158" fill="#F27B6A" opacity=".3" rx="1"/><rect width="10" height="10" x="358" y="176" fill="#F27B6A" opacity=".2" rx="1"/><rect width="10" height="10" x="372" y="176" fill="#F27B6A" opacity=".2" rx="1"/><rect width="10" height="10" x="386" y="176" fill="#F27B6A" opacity=".4" rx="1"/><rect width="10" height="10" x="358" y="190" fill="#F27B6A" opacity=".2" rx="1"/><rect width="10" height="10" x="372" y="190" fill="#F27B6A" opacity=".2" rx="1"/><rect width="10" height="10" x="386" y="190" fill="#F27B6A" opacity=".4" rx="1"/><rect width="24" height="10" x="358" y="204" fill="#F27B6A" opacity=".3" rx="1"/><line x1="415" x2="455" y1="180" y2="180" stroke="#7C5CFC" stroke-width="2"/><polygon fill="#7C5CFC" points="455 180 447 175 447 185"/><circle cx="510" cy="180" r="40" fill="none" stroke="#7C5CFC" stroke-width="2"/><circle cx="510" cy="180" r="34" fill="#7C5CFC" opacity=".06"/><text x="510" y="188" fill="#7C5CFC" font-family="Inter, sans-serif" font-size="24" font-weight="700" text-anchor="middle">$</text><text x="100" y="270" fill="#1A1A1A" font-family="Inter, sans-serif" font-size="12" font-weight="600" text-anchor="middle">Staff</text><text x="240" y="270" fill="#1A1A1A" font-family="Inter, sans-serif" font-size="12" font-weight="600" text-anchor="middle">Clock In</text><text x="380" y="270" fill="#1A1A1A" font-family="Inter, sans-serif" font-size="12" font-weight="600" text-anchor="middle">Payroll</text><text x="510" y="270" fill="#1A1A1A" font-family="Inter, sans-serif" font-size="12" font-weight="600" text-anchor="middle">Paid</text><line x1="100" x2="510" y1="250" y2="250" stroke="#1A1A1A" stroke-dasharray="4 4" stroke-width=".5" opacity=".1"/><circle cx="50" cy="120" r="4" fill="#F27B6A" opacity=".4"/><circle cx="550" cy="120" r="3" fill="#7C5CFC" opacity=".4"/><circle cx="50" cy="320" r="3" fill="#7C5CFC" opacity=".3"/></svg>