<svg xmlns="http://www.w3.org/2000/svg" fill="none" viewBox="0 0 600 400"><circle cx="100" cy="180" r="45" fill="none" stroke="#1A1A1A" stroke-width="1.5" opacity=".12"/><circle cx="100" cy="180" r="38" fill="#1A1A1A" opacity=".04"/><path fill="#1A1A1A" d="M85 170 L95 160 L105 170 L95 180Z" opacity=".8"/><rect width="16" height="4" x="92" y="175" fill="#1A1A1A" opacity=".6" rx="1" transform="rotate(45 100 177)"/><path fill="#1A1A1A" d="M105 185 L115 195 L110 200 L100 190Z" opacity=".8"/><line x1="150" x2="190" y1="180" y2="180" stroke="#7C5CFC" stroke-width="2"/><polygon fill="#7C5CFC" points="190 180 182 175 182 185"/><circle cx="240" cy="180" r="45" fill="none" stroke="#7C5CFC" stroke-width="2"/><circle cx="240" cy="180" r="38" fill="#7C5CFC" opacity=".06"/><rect width="10" height="8" x="235" y="138" fill="#7C5CFC" opacity=".5" rx="1"/><rect width="10" height="8" x="235" y="214" fill="#7C5CFC" opacity=".5" rx="1"/><rect width="8" height="10" x="198" y="175" fill="#7C5CFC" opacity=".5" rx="1"/><rect width="8" height="10" x="274" y="175" fill="#7C5CFC" opacity=".5" rx="1"/><rect width="8" height="8" x="210" y="150" fill="#7C5CFC" opacity=".4" rx="1" transform="rotate(45 214 154)"/><rect width="8" height="8" x="262" y="150" fill="#7C5CFC" opacity=".4" rx="1" transform="rotate(45 266 154)"/><rect width="8" height="8" x="210" y="202" fill="#7C5CFC" opacity=".4" rx="1" transform="rotate(45 214 206)"/><rect width="8" height="8" x="262" y="202" fill="#7C5CFC" opacity=".4" rx="1" transform="rotate(45 266 206)"/><circle cx="240" cy="180" r="10" fill="none" stroke="#7C5CFC" stroke-width="1.5"/><line x1="290" x2="330" y1="180" y2="180" stroke="#7C5CFC" stroke-width="2"/><polygon fill="#7C5CFC" points="330 180 322 175 322 185"/><rect width="60" height="80" x="350" y="140" fill="none" stroke="#F27B6A" stroke-width="2" rx="4"/><rect width="44" height="20" x="358" y="150" fill="#F27B6A" opacity=".08" rx="2"/><rect width="30" height="3" x="358" y="180" fill="#F27B6A" opacity=".4" rx="1"/><rect width="40" height="3" x="358" y="188" fill="#F27B6A" opacity=".25" rx="1"/><rect width="35" height="3" x="358" y="196" fill="#F27B6A" opacity=".25" rx="1"/><circle cx="350" cy="180" r="4" fill="#fff" stroke="#F27B6A" stroke-width="1.5"/><circle cx="410" cy="180" r="4" fill="#fff" stroke="#F27B6A" stroke-width="1.5"/><line x1="415" x2="455" y1="180" y2="180" stroke="#7C5CFC" stroke-width="2"/><polygon fill="#7C5CFC" points="455 180 447 175 447 185"/><circle cx="510" cy="180" r="40" fill="none" stroke="#7C5CFC" stroke-width="2"/><circle cx="510" cy="180" r="34" fill="#7C5CFC" opacity=".06"/><path fill="none" stroke="#7C5CFC" stroke-linecap="round" stroke-linejoin="round" stroke-width="3" d="M495 180 L505 192 L525 170"/><text x="100" y="270" fill="#1A1A1A" font-family="Inter, sans-serif" font-size="12" font-weight="600" text-anchor="middle">Equipment</text><text x="240" y="270" fill="#1A1A1A" font-family="Inter, sans-serif" font-size="12" font-weight="600" text-anchor="middle">Work Order</text><text x="380" y="270" fill="#1A1A1A" font-family="Inter, sans-serif" font-size="12" font-weight="600" text-anchor="middle">Assign</text><text x="510" y="270" fill="#1A1A1A" font-family="Inter, sans-serif" font-size="12" font-weight="600" text-anchor="middle">Done</text><line x1="100" x2="510" y1="250" y2="250" stroke="#1A1A1A" stroke-dasharray="4 4" stroke-width=".5" opacity=".1"/><circle cx="50" cy="120" r="4" fill="#F27B6A" opacity=".4"/><circle cx="550" cy="120" r="3" fill="#7C5CFC" opacity=".4"/><circle cx="50" cy="320" r="3" fill="#7C5CFC" opacity=".3"/></svg>