<svg xmlns="http://www.w3.org/2000/svg" fill="none" viewBox="0 0 600 400"><circle cx="300" cy="200" r="55" fill="none" stroke="#1A1A1A" stroke-width="2"/><circle cx="300" cy="200" r="48" fill="#1A1A1A" opacity=".04"/><rect width="30" height="30" x="285" y="185" fill="none" stroke="#1A1A1A" stroke-width="1.5" rx="3"/><rect width="20" height="20" x="290" y="190" fill="none" stroke="#7C5CFC" stroke-width="1.5" rx="2"/><circle cx="300" cy="200" r="5" fill="#F27B6A"/><rect width="60" height="50" x="270" y="60" fill="none" stroke="#F27B6A" stroke-width="2" rx="4"/><rect width="40" height="28" x="280" y="72" fill="#F27B6A" opacity=".08" rx="2"/><rect width="20" height="4" x="285" y="78" fill="#F27B6A" opacity=".4" rx="1"/><rect width="30" height="3" x="285" y="86" fill="#F27B6A" opacity=".25" rx="1"/><line x1="300" x2="300" y1="110" y2="145" stroke="#7C5CFC" stroke-dasharray="4 3" stroke-width="1.5"/><rect width="60" height="50" x="80" y="280" fill="none" stroke="#7C5CFC" stroke-width="2" rx="4"/><rect width="40" height="28" x="90" y="292" fill="#7C5CFC" opacity=".08" rx="2"/><rect width="20" height="4" x="95" y="298" fill="#7C5CFC" opacity=".4" rx="1"/><rect width="30" height="3" x="95" y="306" fill="#7C5CFC" opacity=".25" rx="1"/><line x1="135" x2="255" y1="290" y2="225" stroke="#7C5CFC" stroke-dasharray="4 3" stroke-width="1.5"/><rect width="60" height="50" x="460" y="280" fill="none" stroke="#F27B6A" stroke-width="2" rx="4"/><rect width="40" height="28" x="470" y="292" fill="#F27B6A" opacity=".08" rx="2"/><rect width="20" height="4" x="475" y="298" fill="#F27B6A" opacity=".4" rx="1"/><rect width="30" height="3" x="475" y="306" fill="#F27B6A" opacity=".25" rx="1"/><line x1="465" x2="345" y1="290" y2="225" stroke="#7C5CFC" stroke-dasharray="4 3" stroke-width="1.5"/><rect width="60" height="50" x="50" y="140" fill="none" stroke="#7C5CFC" stroke-width="2" rx="4"/><rect width="40" height="28" x="60" y="152" fill="#7C5CFC" opacity=".08" rx="2"/><rect width="20" height="4" x="65" y="158" fill="#7C5CFC" opacity=".4" rx="1"/><line x1="110" x2="245" y1="165" y2="190" stroke="#7C5CFC" stroke-dasharray="4 3" stroke-width="1.5"/><rect width="60" height="50" x="490" y="140" fill="none" stroke="#F27B6A" stroke-width="2" rx="4"/><rect width="40" height="28" x="500" y="152" fill="#F27B6A" opacity=".08" rx="2"/><rect width="20" height="4" x="505" y="158" fill="#F27B6A" opacity=".4" rx="1"/><line x1="490" x2="355" y1="165" y2="190" stroke="#7C5CFC" stroke-dasharray="4 3" stroke-width="1.5"/><text x="300" y="55" fill="#1A1A1A" font-family="Inter, sans-serif" font-size="12" font-weight="600" text-anchor="middle">HQ</text><text x="110" y="355" fill="#1A1A1A" font-family="Inter, sans-serif" font-size="12" font-weight="600" text-anchor="middle">Branch 1</text><text x="490" y="355" fill="#1A1A1A" font-family="Inter, sans-serif" font-size="12" font-weight="600" text-anchor="middle">Branch 2</text><text x="80" y="120" fill="#1A1A1A" font-family="Inter, sans-serif" font-size="11" font-weight="600" text-anchor="middle">Site A</text><text x="520" y="120" fill="#1A1A1A" font-family="Inter, sans-serif" font-size="11" font-weight="600" text-anchor="middle">Site B</text><text x="300" y="285" fill="#1A1A1A" font-family="Inter, sans-serif" font-size="12" font-weight="600" text-anchor="middle">One System</text><circle cx="50" cy="50" r="4" fill="#F27B6A" opacity=".4"/><circle cx="550" cy="50" r="3" fill="#7C5CFC" opacity=".4"/><circle cx="50" cy="360" r="3" fill="#7C5CFC" opacity=".3"/></svg>