<svg xmlns="http://www.w3.org/2000/svg" fill="none" viewBox="0 0 600 400"><circle cx="100" cy="180" r="50" fill="#1A1A1A" stroke="#1A1A1A" stroke-width="1" opacity=".06"/><circle cx="100" cy="165" r="12" fill="#1A1A1A"/><path fill="none" stroke="#1A1A1A" stroke-linecap="round" stroke-width="2" d="M80 195 Q100 175 120 195"/><circle cx="100" cy="200" r="18" fill="none" stroke="#1A1A1A" stroke-width="1.5"/><line x1="155" x2="195" y1="180" y2="180" stroke="#7C5CFC" stroke-width="2"/><polygon fill="#7C5CFC" points="195 180 187 175 187 185"/><rect width="60" height="80" x="210" y="140" fill="none" stroke="#7C5CFC" stroke-width="2" rx="4"/><rect width="30" height="4" x="225" y="160" fill="#7C5CFC" opacity=".3" rx="2"/><rect width="20" height="4" x="225" y="172" fill="#7C5CFC" opacity=".2" rx="2"/><path fill="none" stroke="#7C5CFC" stroke-linecap="round" stroke-linejoin="round" stroke-width="2.5" d="M222 190 L228 196 L238 186"/><line x1="275" x2="315" y1="180" y2="180" stroke="#7C5CFC" stroke-width="2"/><polygon fill="#7C5CFC" points="315 180 307 175 307 185"/><rect width="60" height="80" x="330" y="140" fill="none" stroke="#F27B6A" stroke-width="2" rx="4"/><rect width="8" height="20" x="342" y="190" fill="#F27B6A" opacity=".4" rx="1"/><rect width="8" height="35" x="354" y="175" fill="#F27B6A" opacity=".6" rx="1"/><rect width="8" height="50" x="366" y="160" fill="#F27B6A" rx="1"/><line x1="395" x2="435" y1="180" y2="180" stroke="#7C5CFC" stroke-width="2"/><polygon fill="#7C5CFC" points="435 180 427 175 427 185"/><rect width="60" height="80" x="450" y="140" fill="none" stroke="#1A1A1A" stroke-width="2" rx="4"/><rect width="40" height="28" x="460" y="165" fill="none" stroke="#1A1A1A" stroke-width="1.5" rx="2"/><path fill="none" stroke="#1A1A1A" stroke-width="1.5" d="M460 165 L480 180 L500 165"/><path fill="none" stroke="#1A1A1A" stroke-width="1.5" d="M460 193 L480 178 L500 193"/><circle cx="495" cy="160" r="6" fill="#F27B6A"/><text x="100" y="270" fill="#1A1A1A" font-family="Inter, sans-serif" font-size="12" font-weight="600" text-anchor="middle">Student</text><text x="240" y="270" fill="#1A1A1A" font-family="Inter, sans-serif" font-size="12" font-weight="600" text-anchor="middle">Attendance</text><text x="360" y="270" fill="#1A1A1A" font-family="Inter, sans-serif" font-size="12" font-weight="600" text-anchor="middle">Grades</text><text x="480" y="270" fill="#1A1A1A" font-family="Inter, sans-serif" font-size="12" font-weight="600" text-anchor="middle">Notify</text><line x1="100" x2="480" y1="250" y2="250" stroke="#1A1A1A" stroke-dasharray="4 4" stroke-width=".5" opacity=".1"/><circle cx="50" cy="120" r="4" fill="#F27B6A" opacity=".4"/><circle cx="550" cy="120" r="3" fill="#7C5CFC" opacity=".4"/><circle cx="50" cy="320" r="3" fill="#7C5CFC" opacity=".3"/></svg>