<svg xmlns="http://www.w3.org/2000/svg" fill="none" viewBox="0 0 600 400"><path fill="#262626" stroke="#1A1A1A" stroke-width="1.5" d="M60 210 L120 180 L180 210 L120 240Z"/><path fill="#1A1A1A" stroke="#1A1A1A" stroke-width="1.5" d="M60 210 L60 270 L120 300 L120 240Z"/><path fill="#333" stroke="#1A1A1A" stroke-width="1.5" d="M120 240 L120 300 L180 270 L180 210Z"/><rect width="50" height="20" x="85" y="195" fill="#F27B6A" opacity=".4" rx="2" transform="skewX(-30)"/><circle cx="95" cy="235" r="5" fill="#FFF" opacity=".3"/><circle cx="145" cy="235" r="5" fill="#FFF" opacity=".3"/><line x1="180" x2="230" y1="255" y2="255" stroke="#7C5CFC" stroke-width="2"/><polygon fill="#7C5CFC" points="230 255 222 250 222 260"/><path fill="#F27B6A" stroke="#E56A5A" stroke-width="1.5" d="M230 225 L290 195 L350 225 L290 255Z"/><path fill="#E56A5A" stroke="#E56A5A" stroke-width="1.5" d="M230 225 L230 285 L290 315 L290 255Z"/><path fill="#F27B6A" stroke="#E56A5A" stroke-width="1.5" d="M290 255 L290 315 L350 285 L350 225Z"/><path fill="#FFF" d="M255 220 L270 212 L285 220 L270 228Z" opacity=".3"/><path fill="#FFF" d="M275 230 L290 222 L305 230 L290 238Z" opacity=".5"/><path fill="#FFF" d="M265 240 L280 232 L295 240 L280 248Z" opacity=".4"/><line x1="350" x2="400" y1="270" y2="270" stroke="#7C5CFC" stroke-width="2"/><polygon fill="#7C5CFC" points="400 270 392 265 392 275"/><path fill="#7C5CFC" stroke="#6B4BE8" stroke-width="1.5" d="M400 240 L460 210 L520 240 L460 270Z"/><path fill="#6B4BE8" stroke="#6B4BE8" stroke-width="1.5" d="M400 240 L400 300 L460 330 L460 270Z"/><path fill="#7C5CFC" stroke="#6B4BE8" stroke-width="1.5" d="M460 270 L460 330 L520 300 L520 240Z"/><rect width="40" height="8" x="430" y="230" fill="#FFF" opacity=".7" rx="1" transform="skewX(-30)"/><line x1="450" x2="450" y1="238" y2="250" stroke="#FFF" stroke-width="2"/><rect width="20" height="12" x="440" y="250" fill="#FFF" opacity=".4" rx="1" transform="skewX(-30)"/><line x1="460" x2="460" y1="330" y2="350" stroke="#1A1A1A" stroke-width="2"/><polygon fill="#1A1A1A" points="460 350 455 342 465 342"/><path fill="#FFF" stroke="#E5E5E5" stroke-width="1.5" d="M400 370 L460 340 L520 370 L460 400Z"/><path fill="#F5F3EF" stroke="#E5E5E5" stroke-width="1.5" d="M400 370 L400 400 L460 430 L460 400Z"/><path fill="#FAF9F7" stroke="#E5E5E5" stroke-width="1.5" d="M460 400 L460 430 L520 400 L520 370Z"/><rect width="50" height="3" x="425" y="365" fill="#1A1A1A" opacity=".15" rx="1" transform="skewX(-30)"/><rect width="35" height="3" x="425" y="372" fill="#1A1A1A" opacity=".1" rx="1" transform="skewX(-30)"/><rect width="40" height="3" x="425" y="379" fill="#F27B6A" rx="1" transform="skewX(-30)"/><text x="120" y="330" fill="#1A1A1A" font-family="Inter, sans-serif" font-size="12" font-weight="600" text-anchor="middle">Collect</text><text x="290" y="345" fill="#1A1A1A" font-family="Inter, sans-serif" font-size="12" font-weight="600" text-anchor="middle">Sort</text><text x="460" y="360" fill="#1A1A1A" font-family="Inter, sans-serif" font-size="12" font-weight="600" text-anchor="middle">Weigh</text><text x="460" y="455" fill="#1A1A1A" font-family="Inter, sans-serif" font-size="12" font-weight="600" text-anchor="middle">Pay</text><circle cx="50" cy="190" r="4" fill="#F27B6A" opacity=".4"/><circle cx="550" cy="190" r="3" fill="#7C5CFC" opacity=".4"/></svg>