<svg xmlns="http://www.w3.org/2000/svg" fill="none" viewBox="0 0 600 400"><path fill="#262626" stroke="#1A1A1A" stroke-width="1.5" d="M60 200 L130 165 L200 200 L130 235Z"/><path fill="#1A1A1A" stroke="#1A1A1A" stroke-width="1.5" d="M60 200 L60 270 L130 305 L130 235Z"/><path fill="#333" stroke="#1A1A1A" stroke-width="1.5" d="M130 235 L130 305 L200 270 L200 200Z"/><rect width="15" height="40" x="90" y="185" fill="#F27B6A" opacity=".4" rx="1" transform="skewX(-30)"/><rect width="15" height="40" x="110" y="185" fill="#7C5CFC" opacity=".3" rx="1" transform="skewX(-30)"/><rect width="15" height="40" x="130" y="185" fill="#FFF" opacity=".15" rx="1" transform="skewX(-30)"/><rect width="15" height="40" x="155" y="185" fill="#F27B6A" opacity=".25" rx="1" transform="skewX(-30)"/><line x1="200" x2="250" y1="252" y2="252" stroke="#7C5CFC" stroke-width="2"/><polygon fill="#7C5CFC" points="250 252 242 247 242 257"/><path fill="#7C5CFC" stroke="#6B4BE8" stroke-width="1.5" d="M250 215 L320 180 L390 215 L320 250Z"/><path fill="#6B4BE8" stroke="#6B4BE8" stroke-width="1.5" d="M250 215 L250 285 L320 320 L320 250Z"/><path fill="#7C5CFC" stroke="#6B4BE8" stroke-width="1.5" d="M320 250 L320 320 L390 285 L390 215Z"/><rect width="40" height="30" x="280" y="200" fill="#FFF" opacity=".2" rx="2" transform="skewX(-30)"/><line x1="285" x2="285" y1="208" y2="222" stroke="#FFF" stroke-width="2" transform="skewX(-30)"/><line x1="292" x2="292" y1="208" y2="222" stroke="#FFF" stroke-width="1" transform="skewX(-30)"/><line x1="298" x2="298" y1="208" y2="222" stroke="#FFF" stroke-width="3" transform="skewX(-30)"/><line x1="306" x2="306" y1="208" y2="222" stroke="#FFF" stroke-width="1" transform="skewX(-30)"/><line x1="390" x2="440" y1="267" y2="267" stroke="#7C5CFC" stroke-width="2"/><polygon fill="#7C5CFC" points="440 267 432 262 432 272"/><path fill="#F27B6A" stroke="#E56A5A" stroke-width="1.5" d="M440 230 L510 195 L580 230 L510 265Z"/><path fill="#E56A5A" stroke="#E56A5A" stroke-width="1.5" d="M440 230 L440 300 L510 335 L510 265Z"/><path fill="#F27B6A" stroke="#E56A5A" stroke-width="1.5" d="M510 265 L510 335 L580 300 L580 230Z"/><rect width="50" height="8" x="470" y="220" fill="#FFF" opacity=".5" rx="1" transform="skewX(-30)"/><rect width="50" height="8" x="470" y="232" fill="#FFF" opacity=".3" rx="1" transform="skewX(-30)"/><path fill="none" stroke="#FFF" stroke-linecap="round" stroke-width="2" d="M490 245 L505 245 L500 240 M505 245 L500 250"/><line x1="510" x2="510" y1="335" y2="355" stroke="#1A1A1A" stroke-width="2"/><polygon fill="#1A1A1A" points="510 355 505 347 515 347"/><path fill="#FFF" stroke="#E5E5E5" stroke-width="1.5" d="M440 385 L510 350 L580 385 L510 420Z"/><path fill="#F5F3EF" stroke="#E5E5E5" stroke-width="1.5" d="M440 385 L440 415 L510 450 L510 420Z"/><path fill="#FAF9F7" stroke="#E5E5E5" stroke-width="1.5" d="M510 420 L510 450 L580 415 L580 385Z"/><circle cx="510" cy="385" r="12" fill="#F27B6A" opacity=".15"/><text x="510" y="390" fill="#F27B6A" font-family="Inter, sans-serif" font-size="14" font-weight="700" text-anchor="middle">!</text><text x="130" y="330" fill="#1A1A1A" font-family="Inter, sans-serif" font-size="12" font-weight="600" text-anchor="middle">Receive</text><text x="320" y="345" fill="#1A1A1A" font-family="Inter, sans-serif" font-size="12" font-weight="600" text-anchor="middle">Scan</text><text x="510" y="360" fill="#1A1A1A" font-family="Inter, sans-serif" font-size="12" font-weight="600" text-anchor="middle">Move</text><text x="510" y="470" fill="#1A1A1A" font-family="Inter, sans-serif" font-size="12" font-weight="600" text-anchor="middle">Alert</text><circle cx="50" cy="180" r="4" fill="#F27B6A" opacity=".4"/><circle cx="550" cy="180" r="3" fill="#7C5CFC" opacity=".4"/></svg>