<svg xmlns="http://www.w3.org/2000/svg" fill="none" viewBox="0 0 600 400"><circle cx="100" cy="180" r="45" fill="none" stroke="#1A1A1A" stroke-width="1.5" opacity=".12"/><circle cx="100" cy="180" r="38" fill="#1A1A1A" opacity=".04"/><path fill="#1A1A1A" d="M85 170 Q100 160 115 170 L120 195 Q100 205 80 195Z" opacity=".3"/><path fill="none" stroke="#1A1A1A" stroke-linecap="round" stroke-width="2" d="M90 170 Q100 160 110 170"/><rect width="10" height="12" x="95" y="162" fill="#F27B6A" opacity=".5" rx="2"/><line x1="150" x2="190" y1="180" y2="180" stroke="#7C5CFC" stroke-width="2"/><polygon fill="#7C5CFC" points="190 180 182 175 182 185"/><rect width="60" height="80" x="210" y="140" fill="none" stroke="#7C5CFC" stroke-width="2" rx="4"/><rect width="44" height="50" x="218" y="150" fill="#7C5CFC" opacity=".06" rx="2"/><path fill="none" stroke="#7C5CFC" stroke-width="1.5" d="M235 160 L255 160 L265 175 L255 190 L235 190 L225 175Z"/><circle cx="240" cy="175" r="3" fill="#7C5CFC"/><text x="248" y="179" fill="#7C5CFC" font-family="Inter, sans-serif" font-size="10" font-weight="600">$5</text><line x1="275" x2="315" y1="180" y2="180" stroke="#7C5CFC" stroke-width="2"/><polygon fill="#7C5CFC" points="315 180 307 175 307 185"/><circle cx="360" cy="180" r="45" fill="none" stroke="#F27B6A" stroke-width="2"/><circle cx="360" cy="180" r="38" fill="#F27B6A" opacity=".06"/><path fill="none" stroke="#F27B6A" stroke-width="1.5" d="M345 175 L355 175 L358 190 L348 190Z"/><circle cx="348" cy="195" r="3" fill="none" stroke="#F27B6A" stroke-width="1"/><circle cx="358" cy="195" r="3" fill="none" stroke="#F27B6A" stroke-width="1"/><path stroke="#F27B6A" stroke-linecap="round" stroke-width="1.5" d="M342 170 L345 175"/><rect width="6" height="6" x="350" y="178" fill="#F27B6A" opacity=".5" rx="1"/><line x1="410" x2="450" y1="180" y2="180" stroke="#7C5CFC" stroke-width="2"/><polygon fill="#7C5CFC" points="450 180 442 175 442 185"/><rect width="60" height="80" x="470" y="140" fill="none" stroke="#1A1A1A" stroke-width="2" rx="4"/><rect width="44" height="60" x="478" y="150" fill="#1A1A1A" opacity=".03" rx="2"/><rect width="30" height="3" x="482" y="160" fill="#1A1A1A" opacity=".15" rx="1"/><rect width="25" height="3" x="482" y="168" fill="#1A1A1A" opacity=".1" rx="1"/><rect width="35" height="3" x="482" y="176" fill="#1A1A1A" opacity=".1" rx="1"/><line x1="482" x2="518" y1="188" y2="188" stroke="#1A1A1A" stroke-dasharray="2 2" stroke-width=".5"/><rect width="20" height="3" x="482" y="195" fill="#F27B6A" rx="1"/><path fill="none" stroke="#1A1A1A" stroke-width=".5" d="M478 210 L482 214 L486 210 L490 214 L494 210 L498 214 L502 210 L506 214 L510 210 L514 214 L518 210"/><text x="100" y="270" fill="#1A1A1A" font-family="Inter, sans-serif" font-size="12" font-weight="600" text-anchor="middle">Donate</text><text x="240" y="270" fill="#1A1A1A" font-family="Inter, sans-serif" font-size="12" font-weight="600" text-anchor="middle">Price</text><text x="360" y="270" fill="#1A1A1A" font-family="Inter, sans-serif" font-size="12" font-weight="600" text-anchor="middle">Sell</text><text x="500" y="270" fill="#1A1A1A" font-family="Inter, sans-serif" font-size="12" font-weight="600" text-anchor="middle">Receipt</text><line x1="100" x2="500" y1="250" y2="250" stroke="#1A1A1A" stroke-dasharray="4 4" stroke-width=".5" opacity=".1"/><circle cx="50" cy="120" r="4" fill="#F27B6A" opacity=".4"/><circle cx="550" cy="120" r="3" fill="#7C5CFC" opacity=".4"/><circle cx="50" cy="320" r="3" fill="#7C5CFC" opacity=".3"/></svg>